<svg preserveAspectRatio="none" width="100%" height="100%" overflow="visible" style="display: block;" viewBox="0 0 126.65 24.0001" fill="none" xmlns="http://www.w3.org/2000/svg">
<g id="agendame.io/admin">
<path id="Trazado 4626" d="M8.67984 17.6392C8.84204 17.9528 9.11323 18.1965 9.44255 18.3247L9.18856 19.1367C8.70584 19.0377 8.27096 18.7782 7.95487 18.4007C7.64035 17.9447 7.46714 17.4064 7.45683 16.8528C7.11559 17.5489 6.58273 18.1334 5.92068 18.5379C5.25863 18.9424 4.4948 19.1501 3.71875 19.1367C3.21423 19.1632 2.70993 19.0806 2.24035 18.8945C1.77078 18.7084 1.34703 18.4232 0.998105 18.0583C0.308651 17.2616 -0.0465699 16.2301 0.00632952 15.1784C-0.0275919 14.5887 0.0751606 13.9991 0.306654 13.4555C0.538148 12.9119 0.892126 12.4289 1.34103 12.0442C2.40551 11.2526 3.71573 10.8616 5.04068 10.9403H7.30315V9.41719C7.36997 8.59105 7.14021 7.76813 6.65499 7.09564C6.37695 6.82393 6.04288 6.6161 5.67607 6.48665C5.30926 6.35721 4.91855 6.30927 4.53127 6.34619C3.39081 6.38496 2.26861 6.64355 1.22648 7.10772L0.895666 6.21974C2.07243 5.68854 3.34285 5.3952 4.6337 5.35662C7.17602 5.35662 8.44744 6.68457 8.44791 9.34047V16.2426C8.42176 16.7195 8.50093 17.1963 8.67984 17.6392ZM7.30671 15.6345V11.8275H5.1723C2.54461 11.8275 1.231 12.9357 1.23147 15.1521C1.17894 15.9573 1.42821 16.7531 1.93082 17.3849C2.17298 17.6495 2.47083 17.8574 2.80296 17.9934C3.1351 18.1295 3.49327 18.1905 3.8518 18.172C5.37529 18.1725 6.52694 17.3276 7.30671 15.6373V15.6345Z" fill="var(--fill-0, #212B42)"/>
<path id="Trazado 4627" d="M21.8257 5.75797C20.7713 6.02937 19.685 6.15745 18.5963 6.13875C19.9353 6.83256 20.605 8.06791 20.6055 9.84482C20.6358 10.4175 20.55 10.9904 20.3533 11.5292C20.1566 12.068 19.853 12.5616 19.4608 12.9805C19.0458 13.3765 18.5539 13.6833 18.0154 13.882C17.477 14.0807 16.9035 14.167 16.3303 14.1356C15.8021 14.1469 15.2763 14.0609 14.7793 13.882C14.4735 14.0524 14.2155 14.2966 14.0287 14.5923C13.855 14.8655 13.7625 15.1823 13.7619 15.5059C13.7619 16.5042 14.4653 17.0034 15.8721 17.0034H17.5796C18.6156 16.9436 19.6377 17.2643 20.4533 17.9049C20.7924 18.1931 21.0623 18.5539 21.2427 18.9604C21.4232 19.367 21.5096 19.8089 21.4956 20.2534C21.5189 20.7796 21.4146 21.3037 21.1916 21.7811C20.9687 22.2585 20.6336 22.6751 20.2149 22.9955C19.0902 23.7313 17.7549 24.0789 16.4135 23.9851C14.6676 23.9851 13.409 23.6891 12.6378 23.0971C12.2345 22.7529 11.9192 22.3178 11.718 21.8277C11.5169 21.3376 11.4356 20.8067 11.4809 20.279H12.5232C12.498 20.6781 12.5665 21.0776 12.7233 21.4456C12.88 21.8136 13.1207 22.14 13.4261 22.3988C14.3391 22.8952 15.3786 23.1114 16.4142 23.0204C19.023 23.0204 20.3273 22.1236 20.3273 20.3301C20.3454 20.0039 20.287 19.6779 20.1568 19.3782C20.0266 19.0784 19.8283 18.813 19.5775 18.6032C18.9526 18.1592 18.1935 17.9439 17.4281 17.9937H15.8003C14.9773 18.049 14.1591 17.8304 13.4737 17.3721C13.2182 17.1835 13.012 16.9363 12.8726 16.6512C12.7331 16.3662 12.6645 16.0518 12.6726 15.7346C12.6867 15.2845 12.8155 14.8453 13.047 14.4587C13.2784 14.0721 13.6048 13.7509 13.9953 13.5253C13.3387 13.153 12.8015 12.6023 12.446 11.9372C12.0904 11.2721 11.9312 10.5199 11.9868 9.7681C11.9586 9.18106 12.0487 8.59436 12.2517 8.04271C12.4547 7.49105 12.7664 6.98565 13.1685 6.55644C13.5844 6.14813 14.0803 5.83008 14.6251 5.62226C15.17 5.41444 15.752 5.32134 16.3346 5.3488C17.3875 5.38603 18.4418 5.33851 19.4871 5.20671C20.1666 5.08645 20.8315 4.89477 21.4707 4.63486L21.8257 5.75797ZM13.9554 7.19154C13.3833 7.92473 13.0985 8.84102 13.1543 9.76881C13.0972 10.7014 13.4031 11.6199 14.0081 12.3326C14.6362 12.9105 15.4564 13.2356 16.3105 13.245C17.1646 13.2544 17.9919 12.9476 18.6326 12.3837C19.2165 11.6617 19.5029 10.7447 19.4337 9.81926C19.486 8.88824 19.2118 7.96809 18.6582 7.2171C18.3705 6.88957 18.0108 6.63309 17.6071 6.4678C17.2034 6.30251 16.7669 6.23293 16.3317 6.26449C15.8915 6.23295 15.4498 6.2998 15.0388 6.46016C14.6277 6.62053 14.2576 6.87038 13.9554 7.19154Z" fill="var(--fill-0, #212B42)"/>
<path id="Trazado 4628" d="M32.5703 12.7416H24.4596C24.5264 14.6028 24.9035 15.9649 25.5908 16.8278C25.9111 17.2443 26.326 17.5789 26.8012 17.8038C27.2765 18.0287 27.7986 18.1376 28.3243 18.1214C28.9027 18.1337 29.4778 18.0301 30.0154 17.8166C30.5747 17.5654 31.0931 17.2321 31.5536 16.8278L32.1385 17.5382C31.6102 18.031 31.0045 18.4339 30.3456 18.7309C29.6992 19.0069 29.0023 19.1451 28.2993 19.1365C27.5876 19.1637 26.88 19.0174 26.2376 18.7102C25.5952 18.403 25.0374 17.9441 24.6125 17.3733C23.7114 16.1974 23.2621 14.5183 23.265 12.336C23.1591 10.5329 23.6058 8.74035 24.5456 7.19705C24.922 6.61738 25.4412 6.14387 26.0533 5.82185C26.6655 5.49983 27.3501 5.34007 28.0418 5.35787C28.7043 5.32298 29.3648 5.45722 29.961 5.74794C30.5571 6.03867 31.0693 6.47627 31.449 7.01946C32.3083 8.42415 32.7165 10.0578 32.6187 11.7009C32.62 12.0484 32.6039 12.3957 32.5703 12.7416ZM31.4768 11.3208C31.5519 10.0397 31.2611 8.76353 30.638 7.64104C30.3637 7.21679 29.9812 6.87317 29.5297 6.64555C29.0783 6.41793 28.5743 6.31454 28.0695 6.34601C27.5692 6.3372 27.0747 6.45331 26.6308 6.68382C26.1868 6.91432 25.8076 7.25191 25.5275 7.66591C24.8829 8.54632 24.5271 9.93371 24.4603 11.8281H31.4775L31.4768 11.3208Z" fill="var(--fill-0, #212B42)"/>
<path id="Trazado 4629" d="M44.1395 6.38442C44.7477 7.22669 45.0444 8.2536 44.979 9.28992V18.8567H43.835V9.44335C43.835 7.35955 43.0635 6.31884 41.5205 6.32121C40.7456 6.31969 39.9946 6.58885 39.3976 7.08204C38.6811 7.68701 38.082 8.4183 37.6303 9.23948V18.8574H36.4855V5.61082H37.478L37.579 7.9963C38.6813 6.23691 40.0544 5.35722 41.6984 5.35722C42.1572 5.32801 42.6165 5.40559 43.0401 5.58385C43.4637 5.76211 43.84 6.03616 44.1395 6.38442Z" fill="var(--fill-0, #212B42)"/>
<path id="Trazado 4630" d="M58.1235 0.199749V18.8609H57.1274L57.0256 16.8043C56.7143 17.5057 56.204 18.1006 55.5577 18.5156C54.9115 18.9306 54.1577 19.1474 53.3893 19.1394C52.7291 19.1521 52.077 18.991 51.4989 18.6722C50.9208 18.3535 50.4369 17.8884 50.0959 17.3236C49.2087 15.7977 48.7883 14.0458 48.8864 12.2841C48.8623 11.0416 49.0549 9.80438 49.4556 8.62778C49.7656 7.68276 50.3338 6.84301 51.0963 6.20324C51.81 5.63453 52.7005 5.33296 53.6135 5.35077C54.2795 5.34545 54.936 5.50779 55.5226 5.82279C56.1091 6.13778 56.6068 6.59529 56.9694 7.15303V0.0505734L58.1235 0.199749ZM55.5173 17.5027C56.1438 16.9721 56.6434 16.3082 56.9794 15.5597V8.42888C56.6198 7.8367 56.1493 7.31933 55.5934 6.90511C55.0552 6.52617 54.4092 6.33015 53.7508 6.34602C53.2156 6.34226 52.6889 6.4801 52.2244 6.7455C51.7599 7.01091 51.3741 7.39442 51.1062 7.85702C50.3673 9.17523 50.0228 10.6775 50.1137 12.1854C50.0232 13.7195 50.3343 15.2506 51.0166 16.6282C51.2508 17.0896 51.6092 17.4766 52.0516 17.7458C52.4941 18.015 53.0029 18.1556 53.521 18.1519C54.24 18.1707 54.9437 17.9425 55.5145 17.5055L55.5173 17.5027Z" fill="var(--fill-0, #212B42)"/>
<path id="Trazado 4631" d="M70.6268 17.6392C70.789 17.9528 71.0602 18.1965 71.3895 18.3247L71.1355 19.1367C70.6528 19.0378 70.2178 18.7783 69.9018 18.4007C69.5871 17.9448 69.4138 17.4064 69.4038 16.8528C69.0625 17.5488 68.5296 18.1333 67.8676 18.5378C67.2055 18.9423 66.4417 19.15 65.6657 19.1367C65.1612 19.1632 64.6569 19.0805 64.1874 18.8944C63.7178 18.7083 63.2941 18.4231 62.9451 18.0583C62.2559 17.2615 61.9009 16.23 61.954 15.1784C61.9197 14.5886 62.0224 13.999 62.2539 13.4553C62.4854 12.9117 62.8396 12.4287 63.2887 12.0442C64.3532 11.2526 65.6634 10.8616 66.9883 10.9403H69.2508V9.41719C69.3174 8.59108 69.0877 7.76824 68.6027 7.09564C68.3246 6.82397 67.9905 6.61616 67.6237 6.48672C67.2569 6.35727 66.8662 6.30932 66.4789 6.34619C65.3382 6.385 64.2158 6.64358 63.1734 7.10772L62.8433 6.21974C64.0201 5.68854 65.2905 5.3952 66.5814 5.35662C69.1237 5.35662 70.3951 6.68457 70.3956 9.34047V16.2426C70.3689 16.7194 70.4479 17.1963 70.6268 17.6392ZM69.2537 15.6345V11.8275H67.1193C64.4916 11.8275 63.178 12.9357 63.1784 15.1521C63.1259 15.9573 63.3752 16.7531 63.8778 17.3849C64.12 17.6495 64.4178 17.8573 64.75 17.9934C65.0821 18.1295 65.4402 18.1905 65.7988 18.172C67.3223 18.1725 68.4739 17.3276 69.2537 15.6373V15.6345Z" fill="var(--fill-0, #212B42)"/>
<path id="Trazado 4632" d="M89.1577 6.41006C89.7422 7.25292 90.0284 8.2664 89.9709 9.28998V18.8567H88.8532V9.44341C88.9082 8.62808 88.7179 7.81497 88.3068 7.10838C88.1354 6.85421 87.9014 6.64832 87.6273 6.51048C87.3532 6.37265 87.0482 6.30749 86.7416 6.32127C85.4538 6.32127 84.2844 7.2772 83.2333 9.18909V18.8575H82.0886V9.44341C82.1435 8.62808 81.9533 7.81497 81.5422 7.10838C81.3708 6.85416 81.1368 6.64824 80.8627 6.5104C80.5885 6.37255 80.2835 6.30742 79.9769 6.32127C78.6887 6.32127 77.5266 7.2772 76.4907 9.18909V18.8575H75.3467V5.61088H76.3385L76.4402 7.92035C76.8578 7.18879 77.4201 6.54973 78.0929 6.04208C78.6877 5.5957 79.4122 5.35527 80.1562 5.35728C80.8687 5.33207 81.5626 5.58716 82.0886 6.06766C82.6295 6.60255 82.9858 7.29549 83.106 8.04609C83.5373 7.28777 84.1119 6.62022 84.7978 6.08045C85.396 5.61145 86.1347 5.35675 86.8953 5.35728C87.3294 5.33771 87.7619 5.42323 88.1558 5.60654C88.5498 5.78985 88.8935 6.06552 89.1577 6.41006Z" fill="var(--fill-0, #212B42)"/>
<path id="Trazado 4633" d="M103.138 12.7418H95.0273C95.0947 14.603 95.4718 15.9651 96.1586 16.8279C96.4785 17.2449 96.8932 17.5798 97.3684 17.8051C97.8435 18.0304 98.3655 18.1396 98.8913 18.1237C99.4698 18.136 100.045 18.0324 100.582 17.8189C101.142 17.5677 101.66 17.2344 102.121 16.8301L102.706 17.5405C102.177 18.0333 101.572 18.4362 100.913 18.7332C100.266 19.0093 99.5693 19.1474 98.8664 19.1388C98.1547 19.166 97.447 19.0197 96.8046 18.7125C96.1622 18.4053 95.6045 17.9464 95.1796 17.3757C94.2784 16.1997 93.8292 14.5206 93.8321 12.3383C93.7273 10.5348 94.1752 8.74226 95.1163 7.19936C95.4925 6.61969 96.0115 6.14618 96.6235 5.82415C97.2356 5.50212 97.9201 5.34236 98.6117 5.36017C99.2743 5.32523 99.935 5.45946 100.531 5.75018C101.128 6.04091 101.64 6.47852 102.02 7.02176C102.879 8.42645 103.287 10.0601 103.189 11.7032C103.19 12.05 103.172 12.3967 103.138 12.7418ZM102.045 11.321C102.12 10.0398 101.829 8.76371 101.206 7.64122C100.932 7.21697 100.549 6.87335 100.098 6.64573C99.6461 6.41811 99.1421 6.31472 98.6373 6.34619C98.1369 6.33746 97.6423 6.45359 97.1983 6.68408C96.7542 6.91457 96.3748 7.25212 96.0945 7.66609C95.4504 8.5465 95.0947 9.93389 95.0273 11.8283H102.045V11.321Z" fill="var(--fill-0, #212B42)"/>
<path id="Trazado 4634" d="M107.378 17.4516C107.557 17.6399 107.657 17.89 107.657 18.1499C107.657 18.4099 107.557 18.6599 107.378 18.8482C107.188 19.0349 106.933 19.1396 106.666 19.1396C106.4 19.1396 106.144 19.0349 105.955 18.8482C105.775 18.6601 105.675 18.41 105.675 18.1499C105.675 17.8899 105.775 17.6398 105.955 17.4516C106.144 17.2649 106.4 17.1602 106.666 17.1602C106.933 17.1602 107.188 17.2649 107.378 17.4516Z" fill="var(--fill-0, #00FFBA)"/>
<path id="Trazado 4635" d="M112.703 0.254544C112.782 0.335171 112.844 0.430528 112.885 0.535139C112.927 0.639751 112.947 0.751549 112.945 0.864057C112.949 0.978664 112.93 1.09293 112.888 1.19983C112.847 1.30673 112.784 1.404 112.703 1.48565C112.617 1.56784 112.515 1.63166 112.404 1.67319C112.293 1.71473 112.174 1.73309 112.055 1.72717C111.939 1.73135 111.823 1.71091 111.716 1.66719C111.609 1.62347 111.512 1.55746 111.432 1.47355C111.277 1.30853 111.19 1.09072 111.19 0.864404C111.19 0.638086 111.277 0.420257 111.432 0.255238C111.512 0.171201 111.608 0.105073 111.716 0.0612303C111.823 0.0173876 111.939 -0.00317106 112.055 0.000918559C112.175 -0.00464089 112.294 0.0150837 112.406 0.0587806C112.518 0.102477 112.619 0.169184 112.703 0.254544ZM112.665 5.61084V18.8638H111.521V5.61084H112.665Z" fill="var(--fill-0, #00FFBA)"/>
<path id="Trazado 4636" d="M125.341 7.0955C126.214 8.25438 126.65 9.95032 126.65 12.1833C126.65 14.4002 126.205 16.1129 125.315 17.3215C124.885 17.8856 124.33 18.3428 123.694 18.6576C123.058 18.9723 122.357 19.136 121.647 19.136C120.937 19.136 120.237 18.9723 119.601 18.6576C118.964 18.3428 118.41 17.8856 117.979 17.3215C117.015 15.8156 116.552 14.0437 116.657 12.2593C116.657 10.0599 117.107 8.35976 118.006 7.15874C118.439 6.60307 118.993 6.1524 119.625 5.84044C120.258 5.52848 120.953 5.36329 121.658 5.35721C122.363 5.35113 123.061 5.50433 123.699 5.80534C124.337 6.10635 124.898 6.54739 125.341 7.0955ZM118.857 7.81868C118.187 8.79996 117.852 10.2804 117.853 12.26C117.754 13.784 118.098 15.3041 118.844 16.6374C119.155 17.095 119.574 17.4695 120.064 17.7283C120.554 17.9872 121.1 18.1225 121.654 18.1225C122.208 18.1225 122.754 17.9872 123.244 17.7283C123.734 17.4695 124.153 17.095 124.464 16.6374C125.125 15.6476 125.456 14.1631 125.456 12.184C125.456 10.239 125.13 8.77983 124.477 7.8066C124.161 7.35451 123.74 6.98552 123.25 6.73116C122.76 6.47679 122.216 6.34459 121.664 6.34585C121.111 6.34711 120.568 6.48178 120.079 6.73838C119.59 6.99497 119.171 7.36587 118.857 7.81939L118.857 7.81868Z" fill="var(--fill-0, #00FFBA)"/>
</g>
</svg>
