<svg width="181" height="40" viewBox="0 0 181 40" fill="none" xmlns="http://www.w3.org/2000/svg">
<g clip-path="url(#clip0_106_672)">
<mask id="mask0_106_672" style="mask-type:luminance" maskUnits="userSpaceOnUse" x="0" y="0" width="41" height="40">
<path d="M31.7149 0H8.34604C3.73665 0 0 3.73096 0 8.33333V31.6667C0 36.269 3.73665 40 8.34604 40H31.7149C36.3243 40 40.061 36.269 40.061 31.6667V8.33333C40.061 3.73096 36.3243 0 31.7149 0Z" fill="white"/>
</mask>
<g mask="url(#mask0_106_672)">
<path d="M40.4207 -0.289154H-0.348877V40.4183H40.4207V-0.289154Z" fill="#212B42"/>
<path d="M40.3782 -0.251648H-0.311279V40.3759H40.3782V-0.251648Z" fill="#212B42"/>
<path d="M27.8458 27.0425C28.4258 26.4317 29.2045 25.6 29.7896 24.9467C29.68 24.7386 29.6262 24.5058 29.6335 24.2709C29.6328 24.0392 29.6506 23.808 29.6869 23.5792L31.0624 14.0575C29.6102 13.2557 27.9803 12.8289 26.321 12.8159C24.7828 12.7622 23.2787 13.2757 22.0954 14.2584C20.9668 15.2293 20.1194 16.4845 19.6416 17.8934C19.1325 19.3478 18.8729 20.8776 18.8738 22.4184C18.8068 23.7525 19.1846 25.0713 19.9479 26.1684C20.2958 26.6229 20.7482 26.9872 21.2668 27.2304C21.7854 27.4737 22.355 27.5887 22.9275 27.5659C23.6648 27.577 24.3896 27.3744 25.014 26.9825C25.6773 26.5411 26.2482 25.975 26.6949 25.3159C26.7518 25.6691 26.884 26.0061 27.0825 26.304C27.2811 26.6019 27.5414 26.8537 27.8458 27.0425ZM26.6056 22.9409C26.2388 23.5373 25.7892 24.0787 25.2702 24.5492C24.8807 24.8982 24.3747 25.0893 23.8514 25.085C23.6063 25.0982 23.3621 25.0467 23.1434 24.9357C22.9246 24.8246 22.739 24.658 22.6053 24.4525C22.2761 23.8262 22.1292 23.1204 22.1813 22.415C22.1797 21.2687 22.3221 20.1267 22.6053 19.0159C22.8417 18.0216 23.2979 17.0928 23.9407 16.2975C24.2108 15.9574 24.5557 15.6838 24.9486 15.4978C25.3414 15.3118 25.7719 15.2185 26.2066 15.225C26.7056 15.2207 27.201 15.3097 27.6672 15.4875L26.6056 22.9409Z" fill="#00FFBA"/>
<path d="M11.4741 -0.289154V2.85251C11.4741 3.32769 11.6632 3.78341 11.9997 4.11941C12.3362 4.45541 12.7926 4.64418 13.2685 4.64418C13.7444 4.64418 14.2008 4.45541 14.5373 4.11941C14.8739 3.78341 15.0629 3.32769 15.0629 2.85251V-0.289154H11.4741Z" fill="#00FFBA"/>
<path d="M25.0056 -0.289154V2.85251C25.0056 3.32769 25.1947 3.78341 25.5312 4.11941C25.8677 4.45541 26.3241 4.64418 26.8 4.64418C27.2759 4.64418 27.7323 4.45541 28.0688 4.11941C28.4054 3.78341 28.5944 3.32769 28.5944 2.85251V-0.289154H25.0056Z" fill="#00FFBA"/>
<path d="M18.8246 14.0517L17.45 23.5892C17.4124 23.9434 17.3965 24.1725 17.3965 24.2809C17.391 24.5162 17.4465 24.749 17.5576 24.9567C17.6838 25.1565 17.8724 25.3091 18.0943 25.3909L17.112 27.535C16.4832 27.5323 15.8749 27.3116 15.3911 26.9106C14.9072 26.5096 14.578 25.9533 14.4596 25.3367C14.0114 25.9922 13.4386 26.5534 12.7737 26.9884C12.1522 27.3798 11.4302 27.5825 10.6955 27.5717C10.1223 27.5959 9.55175 27.4818 9.03208 27.2391C8.51241 26.9964 8.05897 26.6323 7.71014 26.1775C6.94678 25.0804 6.56905 23.7617 6.636 22.4275C6.63348 20.8815 6.89309 19.3462 7.40384 17.8867C7.87761 16.4771 8.7236 15.2213 9.85257 14.2517C11.0364 13.2699 12.5402 12.7566 14.0782 12.8092C15.7393 12.8217 17.371 13.2488 18.8246 14.0517ZM11.6995 16.3017C11.0519 17.1026 10.5933 18.0388 10.3575 19.0409C10.0768 20.1522 9.93435 21.2939 9.93352 22.44C9.88398 23.1452 10.0307 23.8504 10.3575 24.4775C10.4912 24.683 10.6768 24.8496 10.8956 24.9607C11.1143 25.0717 11.3585 25.1232 11.6036 25.11C12.1269 25.1142 12.6328 24.9231 13.0224 24.5742C13.5414 24.1037 13.9909 23.5623 14.3578 22.9659L15.4286 15.4992C14.9645 15.321 14.471 15.2319 13.9738 15.2367C13.5389 15.2292 13.1082 15.322 12.7151 15.5081C12.3221 15.6941 11.9774 15.9683 11.7079 16.3092L11.6995 16.3017Z" fill="#00FFBA"/>
<path d="M40.4157 11.5425C30.4931 29.7008 19.1308 37.3033 10.5669 40.4183H40.4157V11.5425Z" fill="#00FFBA"/>
<path d="M28.5 34.0983C28.557 34.0929 28.6145 34.1002 28.6683 34.1196C28.7222 34.1391 28.771 34.1702 28.8113 34.2108C28.848 34.2484 28.8768 34.2929 28.8962 34.3417C28.9155 34.3904 28.925 34.4426 28.924 34.495C28.9255 34.5468 28.9163 34.5983 28.8969 34.6464C28.8776 34.6944 28.8484 34.7379 28.8113 34.7742C28.7254 34.8456 28.6172 34.8846 28.5054 34.8846C28.3937 34.8846 28.2855 34.8456 28.1996 34.7742C28.129 34.6963 28.0898 34.595 28.0898 34.49C28.0898 34.385 28.129 34.2837 28.1996 34.2058C28.2397 34.1684 28.287 34.1396 28.3387 34.1211C28.3903 34.1027 28.4452 34.0949 28.5 34.0983Z" fill="#212B42"/>
<path d="M29.7519 30.8225C29.7495 30.7724 29.7572 30.7224 29.7747 30.6754C29.7922 30.6284 29.8191 30.5855 29.8537 30.5492C29.8932 30.5106 29.9403 30.4807 29.9921 30.4613C30.0438 30.4419 30.099 30.4335 30.1542 30.4367C30.2103 30.4331 30.2665 30.4412 30.3193 30.4606C30.372 30.48 30.4201 30.5101 30.4605 30.5492C30.4954 30.5853 30.5225 30.6282 30.54 30.6752C30.5575 30.7223 30.5651 30.7724 30.5623 30.8225C30.5648 30.8726 30.557 30.9226 30.5395 30.9696C30.522 31.0166 30.4951 31.0596 30.4605 31.0959C30.3764 31.1703 30.2664 31.2089 30.1542 31.2033C30.0437 31.2087 29.9357 31.17 29.8537 31.0959C29.8191 31.0596 29.7922 31.0166 29.7747 30.9696C29.7572 30.9226 29.7495 30.8726 29.7519 30.8225ZM30.493 34.8492H29.7953V31.6284H30.493V34.8492Z" fill="#212B42"/>
<path d="M31.164 33.2367C31.1583 32.9436 31.2227 32.6533 31.3518 32.39C31.4693 32.1481 31.6561 31.9466 31.8885 31.8109C32.1144 31.6711 32.3739 31.5951 32.6396 31.5909C32.8381 31.5793 33.0368 31.6105 33.2221 31.6824C33.4075 31.7543 33.5751 31.8652 33.7138 32.0075C33.9943 32.3068 34.1499 32.7018 34.1486 33.1117V33.2834C34.1529 33.5742 34.0903 33.8621 33.9658 34.125C33.8483 34.3669 33.6615 34.5685 33.4291 34.7042C33.1918 34.843 32.9205 34.9134 32.6455 34.9075C32.4446 34.9138 32.2447 34.8769 32.0593 34.7992C31.874 34.7216 31.7076 34.6051 31.5713 34.4575C31.2821 34.1187 31.136 33.681 31.164 33.2367ZM31.8835 33.3009C31.8775 33.5694 31.9544 33.8333 32.1038 34.0567C32.1709 34.144 32.2573 34.2146 32.3563 34.263C32.4552 34.3114 32.564 34.3364 32.6742 34.3359C32.7844 34.3354 32.893 34.3095 32.9916 34.2602C33.0901 34.2109 33.1759 34.1395 33.2422 34.0517C33.3829 33.8042 33.4465 33.5205 33.425 33.2367C33.4427 32.9658 33.3712 32.6965 33.2213 32.47C33.1601 32.3726 33.0742 32.2931 32.9724 32.2394C32.8706 32.1857 32.7564 32.1598 32.6413 32.1642C32.5358 32.1633 32.4317 32.1883 32.3381 32.237C32.2445 32.2856 32.1644 32.3565 32.1046 32.4434C31.948 32.6919 31.8746 32.9838 31.8951 33.2767L31.8835 33.3009Z" fill="#212B42"/>
</g>
<path d="M62.109 25.6392C62.2712 25.9528 62.5424 26.1965 62.8718 26.3247L62.6178 27.1367C62.135 27.0377 61.7002 26.7782 61.3841 26.4007C61.0695 25.9447 60.8963 25.4064 60.886 24.8528C60.5448 25.5489 60.0119 26.1334 59.3499 26.5379C58.6878 26.9424 57.924 27.1501 57.1479 27.1367C56.6434 27.1633 56.1391 27.0806 55.6696 26.8945C55.2 26.7084 54.7762 26.4232 54.4273 26.0583C53.7378 25.2616 53.3826 24.2301 53.4355 23.1784C53.4016 22.5887 53.5044 21.9991 53.7359 21.4555C53.9673 20.9119 54.3213 20.429 54.7702 20.0442C55.8347 19.2526 57.1449 18.8617 58.4699 18.9403H60.7323V17.4172C60.7992 16.5911 60.5694 15.7681 60.0842 15.0957C59.8062 14.8239 59.4721 14.6161 59.1053 14.4867C58.7385 14.3572 58.3478 14.3093 57.9605 14.3462C56.82 14.385 55.6978 14.6436 54.6557 15.1077L54.3249 14.2197C55.5016 13.6886 56.772 13.3952 58.0629 13.3566C60.6052 13.3566 61.8766 14.6846 61.8771 17.3405V24.2426C61.851 24.7195 61.9301 25.1963 62.109 25.6392ZM60.7359 23.6345V19.8275H58.6015C55.9738 19.8275 54.6602 20.9357 54.6607 23.1521C54.6081 23.9573 54.8574 24.7531 55.36 25.3849C55.6022 25.6495 55.9 25.8574 56.2322 25.9935C56.5643 26.1295 56.9225 26.1905 57.281 26.172C58.8045 26.1725 59.9561 25.3276 60.7359 23.6374V23.6345Z" fill="#212B42"/>
<path d="M75.2549 13.758C74.2005 14.0294 73.1143 14.1575 72.0256 14.1387C73.3645 14.8326 74.0343 16.0679 74.0347 17.8448C74.065 18.4175 73.9792 18.9904 73.7825 19.5292C73.5858 20.068 73.2823 20.5616 72.89 20.9805C72.475 21.3765 71.9831 21.6833 71.4447 21.882C70.9062 22.0807 70.3327 22.167 69.7595 22.1356C69.2313 22.1469 68.7055 22.0609 68.2085 21.882C67.9028 22.0524 67.6447 22.2966 67.4579 22.5923C67.2842 22.8655 67.1917 23.1823 67.1911 23.5059C67.1911 24.5042 67.8945 25.0034 69.3014 25.0034H71.0089C72.0448 24.9436 73.0669 25.2643 73.8825 25.9049C74.2217 26.1931 74.4915 26.5539 74.6719 26.9604C74.8524 27.367 74.9388 27.8089 74.9248 28.2534C74.9481 28.7796 74.8438 29.3037 74.6209 29.7811C74.3979 30.2585 74.0629 30.6751 73.6442 30.9955C72.5194 31.7313 71.1842 32.0789 69.8428 31.9851C68.0968 31.9851 66.8382 31.6891 66.067 31.0971C65.6638 30.7529 65.3485 30.3178 65.1473 29.8277C64.9461 29.3376 64.8648 28.8067 64.9102 28.279H65.9524C65.9272 28.6781 65.9958 29.0776 66.1525 29.4456C66.3093 29.8136 66.5499 30.14 66.8553 30.3988C67.7684 30.8952 68.8078 31.1114 69.8435 31.0204C72.4522 31.0204 73.7566 30.1236 73.7566 28.3301C73.7746 28.0039 73.7162 27.6779 73.586 27.3782C73.4559 27.0784 73.2575 26.813 73.0067 26.6032C72.3818 26.1592 71.6227 25.9439 70.8574 25.9937H69.2295C68.4065 26.049 67.5883 25.8304 66.903 25.3721C66.6475 25.1835 66.4413 24.9363 66.3018 24.6512C66.1623 24.3662 66.0938 24.0518 66.1019 23.7346C66.1159 23.2845 66.2448 22.8453 66.4762 22.4587C66.7076 22.0721 67.034 21.7509 67.4245 21.5253C66.768 21.153 66.2307 20.6023 65.8752 19.9372C65.5197 19.2721 65.3605 18.5199 65.416 17.7681C65.3879 17.1811 65.4779 16.5944 65.6809 16.0427C65.8839 15.4911 66.1956 14.9856 66.5977 14.5564C67.0136 14.1481 67.5095 13.8301 68.0544 13.6223C68.5992 13.4144 69.1812 13.3213 69.7638 13.3488C70.8167 13.386 71.871 13.3385 72.9163 13.2067C73.5959 13.0865 74.2607 12.8948 74.8999 12.6349L75.2549 13.758ZM67.3846 15.1915C66.8125 15.9247 66.5277 16.841 66.5835 17.7688C66.5264 18.7014 66.8323 19.6199 67.4373 20.3326C68.0654 20.9105 68.8857 21.2356 69.7397 21.245C70.5938 21.2544 71.4211 20.9476 72.0619 20.3837C72.6457 19.6617 72.9321 18.7447 72.863 17.8193C72.9153 16.8882 72.641 15.9681 72.0874 15.2171C71.7998 14.8896 71.44 14.6331 71.0363 14.4678C70.6327 14.3025 70.1961 14.2329 69.761 14.2645C69.3208 14.233 68.8791 14.2998 68.468 14.4602C68.0569 14.6205 67.6868 14.8704 67.3846 15.1915Z" fill="#212B42"/>
<path d="M85.9996 20.7416H77.8888C77.9557 22.6028 78.3328 23.9649 79.02 24.8278C79.3403 25.2443 79.7552 25.5789 80.2305 25.8038C80.7057 26.0287 81.2278 26.1376 81.7535 26.1214C82.332 26.1337 82.907 26.0301 83.4447 25.8166C84.0039 25.5654 84.5224 25.2321 84.9829 24.8278L85.5677 25.5381C85.0394 26.031 84.4338 26.4339 83.7748 26.7309C83.1285 27.0069 82.4315 27.1451 81.7286 27.1365C81.0168 27.1637 80.3092 27.0174 79.6668 26.7102C79.0244 26.403 78.4667 25.9441 78.0418 25.3733C77.1406 24.1974 76.6914 22.5183 76.6942 20.336C76.5883 18.5329 77.035 16.7403 77.9749 15.197C78.3513 14.6174 78.8704 14.1439 79.4826 13.8218C80.0947 13.4998 80.7793 13.3401 81.471 13.3579C82.1336 13.323 82.7941 13.4572 83.3902 13.7479C83.9864 14.0387 84.4985 14.4763 84.8783 15.0194C85.7376 16.4241 86.1458 18.0578 86.0479 19.7009C86.0492 20.0484 86.0331 20.3957 85.9996 20.7416ZM84.906 19.3208C84.9812 18.0397 84.6903 16.7635 84.0672 15.641C83.793 15.2168 83.4104 14.8732 82.959 14.6455C82.5075 14.4179 82.0035 14.3145 81.4988 14.346C80.9985 14.3372 80.5039 14.4533 80.06 14.6838C79.616 14.9143 79.2368 15.2519 78.9567 15.6659C78.3121 16.5463 77.9564 17.9337 77.8895 19.8281H84.9067L84.906 19.3208Z" fill="#212B42"/>
<path d="M97.5688 14.3844C98.177 15.2267 98.4737 16.2536 98.4083 17.2899V26.8567H97.2643V17.4433C97.2643 15.3595 96.4928 14.3188 94.9498 14.3212C94.1749 14.3197 93.4239 14.5888 92.8269 15.082C92.1104 15.687 91.5113 16.4183 91.0596 17.2395V26.8574H89.9148V13.6108H90.9073L91.0083 15.9963C92.1106 14.2369 93.4837 13.3572 95.1277 13.3572C95.5865 13.328 96.0458 13.4056 96.4694 13.5838C96.893 13.7621 97.2693 14.0361 97.5688 14.3844Z" fill="#212B42"/>
<path d="M111.553 8.19974V26.8609H110.557L110.455 24.8043C110.144 25.5057 109.633 26.1006 108.987 26.5156C108.341 26.9306 107.587 27.1474 106.819 27.1394C106.158 27.1521 105.506 26.991 104.928 26.6722C104.35 26.3535 103.866 25.8884 103.525 25.3236C102.638 23.7977 102.218 22.0458 102.316 20.2841C102.292 19.0416 102.484 17.8044 102.885 16.6278C103.195 15.6828 103.763 14.843 104.526 14.2032C105.239 13.6345 106.13 13.333 107.043 13.3508C107.709 13.3454 108.365 13.5078 108.952 13.8228C109.538 14.1378 110.036 14.5953 110.399 15.153V8.05057L111.553 8.19974ZM108.947 25.5026C109.573 24.9721 110.073 24.3082 110.409 23.5597V16.4289C110.049 15.8367 109.579 15.3193 109.023 14.9051C108.485 14.5262 107.838 14.3301 107.18 14.346C106.645 14.3423 106.118 14.4801 105.654 14.7455C105.189 15.0109 104.803 15.3944 104.536 15.857C103.797 17.1752 103.452 18.6775 103.543 20.1854C103.452 21.7195 103.764 23.2506 104.446 24.6281C104.68 25.0896 105.039 25.4766 105.481 25.7458C105.923 26.015 106.432 26.1556 106.95 26.1519C107.669 26.1707 108.373 25.9425 108.944 25.5055L108.947 25.5026Z" fill="#212B42"/>
<path d="M124.056 25.6392C124.218 25.9528 124.489 26.1965 124.819 26.3247L124.565 27.1367C124.082 27.0378 123.647 26.7783 123.331 26.4007C123.016 25.9448 122.843 25.4065 122.833 24.8528C122.492 25.5488 121.959 26.1333 121.297 26.5378C120.635 26.9423 119.871 27.1501 119.095 27.1367C118.59 27.1632 118.086 27.0805 117.617 26.8944C117.147 26.7083 116.723 26.4231 116.374 26.0583C115.685 25.2615 115.33 24.23 115.383 23.1784C115.349 22.5887 115.452 21.999 115.683 21.4553C115.915 20.9117 116.269 20.4287 116.718 20.0442C117.782 19.2526 119.093 18.8617 120.418 18.9403H122.68V17.4172C122.747 16.5911 122.517 15.7682 122.032 15.0957C121.754 14.824 121.42 14.6162 121.053 14.4867C120.686 14.3573 120.295 14.3093 119.908 14.3462C118.767 14.385 117.645 14.6436 116.603 15.1077L116.272 14.2197C117.449 13.6886 118.72 13.3952 120.011 13.3566C122.553 13.3566 123.824 14.6846 123.825 17.3405V24.2426C123.798 24.7194 123.877 25.1963 124.056 25.6392ZM122.683 23.6345V19.8275H120.548C117.921 19.8275 116.607 20.9357 116.608 23.1521C116.555 23.9573 116.804 24.7531 117.307 25.3849C117.549 25.6495 117.847 25.8573 118.179 25.9934C118.511 26.1295 118.869 26.1905 119.228 26.172C120.751 26.1725 121.903 25.3276 122.683 23.6374V23.6345Z" fill="#212B42"/>
<path d="M142.587 14.4101C143.171 15.2529 143.458 16.2664 143.4 17.29V26.8568H142.282V17.4434C142.337 16.6281 142.147 15.815 141.736 15.1084C141.565 14.8542 141.331 14.6483 141.056 14.5105C140.782 14.3727 140.477 14.3075 140.171 14.3213C138.883 14.3213 137.714 15.2772 136.663 17.1891V26.8575H135.518V17.4434C135.573 16.6281 135.382 15.815 134.971 15.1084C134.8 14.8542 134.566 14.6483 134.292 14.5104C134.018 14.3726 133.713 14.3074 133.406 14.3213C132.118 14.3213 130.956 15.2772 129.92 17.1891V26.8575H128.776V13.6109H129.768L129.869 15.9204C130.287 15.1888 130.849 14.5497 131.522 14.0421C132.117 13.5957 132.841 13.3553 133.585 13.3573C134.298 13.3321 134.992 13.5872 135.518 14.0677C136.059 14.6026 136.415 15.2955 136.535 16.0461C136.966 15.2878 137.541 14.6202 138.227 14.0805C138.825 13.6115 139.564 13.3568 140.324 13.3573C140.759 13.3377 141.191 13.4232 141.585 13.6066C141.979 13.7899 142.323 14.0655 142.587 14.4101Z" fill="#212B42"/>
<path d="M156.567 20.7418H148.457C148.524 22.603 148.901 23.9651 149.588 24.8279C149.908 25.2448 150.322 25.5798 150.798 25.8051C151.273 26.0304 151.795 26.1396 152.321 26.1237C152.899 26.136 153.474 26.0324 154.012 25.8189C154.571 25.5677 155.089 25.2344 155.55 24.8301L156.135 25.5404C155.606 26.0333 155.001 26.4362 154.342 26.7332C153.696 27.0093 152.999 27.1474 152.296 27.1388C151.584 27.166 150.876 27.0197 150.234 26.7125C149.591 26.4053 149.034 25.9464 148.609 25.3756C147.708 24.1997 147.258 22.5206 147.261 20.3383C147.156 18.5348 147.604 16.7423 148.545 15.1993C148.922 14.6197 149.441 14.1462 150.053 13.8241C150.665 13.5021 151.349 13.3424 152.041 13.3602C152.704 13.3252 153.364 13.4595 153.96 13.7502C154.557 14.0409 155.069 14.4785 155.449 15.0217C156.308 16.4264 156.716 18.0601 156.619 19.7032C156.619 20.05 156.602 20.3967 156.567 20.7418ZM155.474 19.321C155.549 18.0398 155.258 16.7637 154.635 15.6412C154.361 15.217 153.978 14.8733 153.527 14.6457C153.075 14.4181 152.571 14.3147 152.067 14.3462C151.566 14.3374 151.072 14.4536 150.627 14.6841C150.183 14.9146 149.804 15.2521 149.524 15.6661C148.88 16.5465 148.524 17.9339 148.457 19.8282H155.474V19.321Z" fill="#212B42"/>
<path d="M160.807 25.4516C160.987 25.64 161.087 25.89 161.087 26.1499C161.087 26.4099 160.987 26.6599 160.807 26.8482C160.617 27.035 160.362 27.1396 160.096 27.1396C159.829 27.1396 159.574 27.035 159.384 26.8482C159.204 26.6601 159.104 26.41 159.104 26.1499C159.104 25.8899 159.204 25.6398 159.384 25.4516C159.574 25.2649 159.829 25.1602 160.096 25.1602C160.362 25.1602 160.617 25.2649 160.807 25.4516Z" fill="#00FFBA"/>
<path d="M166.132 8.25454C166.211 8.33517 166.273 8.43053 166.314 8.53514C166.356 8.63975 166.376 8.75155 166.374 8.86406C166.378 8.97866 166.359 9.09293 166.318 9.19983C166.276 9.30673 166.213 9.404 166.132 9.48565C166.046 9.56784 165.945 9.63166 165.833 9.67319C165.722 9.71473 165.603 9.73309 165.484 9.72717C165.368 9.73135 165.253 9.71091 165.145 9.66719C165.038 9.62347 164.941 9.55746 164.861 9.47355C164.706 9.30853 164.619 9.09072 164.619 8.8644C164.619 8.63809 164.706 8.42026 164.861 8.25524C164.941 8.1712 165.038 8.10507 165.145 8.06123C165.253 8.01739 165.368 7.99683 165.484 8.00092C165.604 7.99536 165.724 8.01508 165.835 8.05878C165.947 8.10248 166.048 8.16918 166.132 8.25454ZM166.095 13.6108V26.8638H164.95V13.6108H166.095Z" fill="#00FFBA"/>
<path d="M178.77 15.0955C179.643 16.2544 180.079 17.9503 180.079 20.1833C180.079 22.4002 179.634 24.1129 178.745 25.3215C178.314 25.8856 177.76 26.3428 177.123 26.6575C176.487 26.9723 175.787 27.136 175.077 27.136C174.367 27.136 173.666 26.9723 173.03 26.6575C172.394 26.3428 171.839 25.8856 171.409 25.3215C170.444 23.8156 169.981 22.0437 170.087 20.2593C170.087 18.0599 170.536 16.3598 171.435 15.1587C171.868 14.6031 172.422 14.1524 173.055 13.8404C173.687 13.5285 174.382 13.3633 175.087 13.3572C175.793 13.3511 176.49 13.5043 177.128 13.8053C177.766 14.1063 178.327 14.5474 178.77 15.0955ZM172.287 15.8187C171.616 16.7999 171.281 18.2804 171.282 20.26C171.183 21.784 171.527 23.3041 172.273 24.6374C172.585 25.095 173.004 25.4695 173.494 25.7283C173.983 25.9871 174.529 26.1225 175.083 26.1225C175.638 26.1225 176.183 25.9871 176.673 25.7283C177.163 25.4695 177.582 25.095 177.894 24.6374C178.554 23.6476 178.885 22.1631 178.885 20.184C178.885 18.2389 178.559 16.7798 177.906 15.8066C177.59 15.3545 177.169 14.9855 176.679 14.7311C176.189 14.4768 175.645 14.3446 175.093 14.3458C174.541 14.3471 173.997 14.4818 173.508 14.7384C173.019 14.995 172.6 15.3659 172.286 15.8194L172.287 15.8187Z" fill="#00FFBA"/>
</g>
<defs>
<clipPath id="clip0_106_672">
<rect width="180.079" height="40" fill="white"/>
</clipPath>
</defs>
</svg>
