<svg width="41" height="40" viewBox="0 0 41 40" fill="none" xmlns="http://www.w3.org/2000/svg">
<mask id="mask0_106_737" style="mask-type:luminance" maskUnits="userSpaceOnUse" x="0" y="0" width="41" height="40">
<path d="M31.7149 0H8.34604C3.73665 0 0 3.73096 0 8.33333V31.6667C0 36.269 3.73665 40 8.34604 40H31.7149C36.3243 40 40.061 36.269 40.061 31.6667V8.33333C40.061 3.73096 36.3243 0 31.7149 0Z" fill="white"/>
</mask>
<g mask="url(#mask0_106_737)">
<path d="M40.4207 -0.289154H-0.348877V40.4183H40.4207V-0.289154Z" fill="#212B42"/>
<path d="M40.3782 -0.251648H-0.311279V40.3759H40.3782V-0.251648Z" fill="#212B42"/>
<path d="M27.8458 27.0425C28.4258 26.4317 29.2045 25.6 29.7896 24.9467C29.68 24.7386 29.6262 24.5058 29.6335 24.2709C29.6328 24.0392 29.6506 23.808 29.6869 23.5792L31.0624 14.0575C29.6102 13.2557 27.9803 12.8289 26.321 12.8159C24.7828 12.7622 23.2787 13.2757 22.0954 14.2584C20.9668 15.2293 20.1194 16.4845 19.6416 17.8934C19.1325 19.3478 18.8729 20.8776 18.8738 22.4184C18.8068 23.7525 19.1846 25.0713 19.9479 26.1684C20.2958 26.6229 20.7482 26.9872 21.2668 27.2304C21.7854 27.4737 22.355 27.5887 22.9275 27.5659C23.6648 27.577 24.3896 27.3744 25.014 26.9825C25.6773 26.5411 26.2482 25.975 26.6949 25.3159C26.7518 25.6691 26.884 26.0061 27.0825 26.304C27.2811 26.6019 27.5414 26.8537 27.8458 27.0425ZM26.6056 22.9409C26.2388 23.5373 25.7892 24.0787 25.2702 24.5492C24.8807 24.8982 24.3747 25.0893 23.8514 25.085C23.6063 25.0982 23.3621 25.0467 23.1434 24.9357C22.9246 24.8246 22.739 24.658 22.6053 24.4525C22.2761 23.8262 22.1292 23.1204 22.1813 22.415C22.1797 21.2687 22.3221 20.1267 22.6053 19.0159C22.8417 18.0216 23.2979 17.0928 23.9407 16.2975C24.2108 15.9574 24.5557 15.6838 24.9486 15.4978C25.3414 15.3118 25.7719 15.2185 26.2066 15.225C26.7056 15.2207 27.201 15.3097 27.6672 15.4875L26.6056 22.9409Z" fill="#00FFBA"/>
<path d="M11.4741 -0.289154V2.85251C11.4741 3.32769 11.6632 3.78341 11.9997 4.11941C12.3362 4.45541 12.7926 4.64418 13.2685 4.64418C13.7444 4.64418 14.2008 4.45541 14.5373 4.11941C14.8739 3.78341 15.0629 3.32769 15.0629 2.85251V-0.289154H11.4741Z" fill="#00FFBA"/>
<path d="M25.0056 -0.289154V2.85251C25.0056 3.32769 25.1947 3.78341 25.5312 4.11941C25.8677 4.45541 26.3241 4.64418 26.8 4.64418C27.2759 4.64418 27.7323 4.45541 28.0688 4.11941C28.4054 3.78341 28.5944 3.32769 28.5944 2.85251V-0.289154H25.0056Z" fill="#00FFBA"/>
<path d="M18.8246 14.0517L17.45 23.5892C17.4124 23.9434 17.3965 24.1725 17.3965 24.2809C17.391 24.5162 17.4465 24.749 17.5576 24.9567C17.6838 25.1565 17.8724 25.3091 18.0943 25.3909L17.112 27.535C16.4832 27.5323 15.8749 27.3116 15.3911 26.9106C14.9072 26.5096 14.578 25.9533 14.4596 25.3367C14.0114 25.9922 13.4386 26.5534 12.7737 26.9884C12.1522 27.3798 11.4302 27.5825 10.6955 27.5717C10.1223 27.5959 9.55175 27.4818 9.03208 27.2391C8.51241 26.9964 8.05897 26.6323 7.71014 26.1775C6.94678 25.0804 6.56905 23.7617 6.636 22.4275C6.63348 20.8815 6.89309 19.3462 7.40384 17.8867C7.87761 16.4771 8.7236 15.2213 9.85257 14.2517C11.0364 13.2699 12.5402 12.7566 14.0782 12.8092C15.7393 12.8217 17.371 13.2488 18.8246 14.0517ZM11.6995 16.3017C11.0519 17.1026 10.5933 18.0388 10.3575 19.0409C10.0768 20.1522 9.93435 21.2939 9.93352 22.44C9.88398 23.1452 10.0307 23.8504 10.3575 24.4775C10.4912 24.683 10.6768 24.8496 10.8956 24.9607C11.1143 25.0717 11.3585 25.1232 11.6036 25.11C12.1269 25.1142 12.6328 24.9231 13.0224 24.5742C13.5414 24.1037 13.9909 23.5623 14.3578 22.9659L15.4286 15.4992C14.9645 15.321 14.471 15.2319 13.9738 15.2367C13.5389 15.2292 13.1082 15.322 12.7151 15.5081C12.3221 15.6941 11.9774 15.9683 11.7079 16.3092L11.6995 16.3017Z" fill="#00FFBA"/>
<path d="M40.4157 11.5425C30.4931 29.7008 19.1308 37.3033 10.5669 40.4183H40.4157V11.5425Z" fill="#00FFBA"/>
<path d="M28.5 34.0983C28.557 34.0929 28.6145 34.1002 28.6683 34.1196C28.7222 34.1391 28.771 34.1702 28.8113 34.2108C28.848 34.2484 28.8768 34.2929 28.8962 34.3417C28.9155 34.3904 28.925 34.4426 28.924 34.495C28.9255 34.5468 28.9163 34.5983 28.8969 34.6464C28.8776 34.6944 28.8484 34.7379 28.8113 34.7742C28.7254 34.8456 28.6172 34.8846 28.5054 34.8846C28.3937 34.8846 28.2855 34.8456 28.1996 34.7742C28.129 34.6963 28.0898 34.595 28.0898 34.49C28.0898 34.385 28.129 34.2837 28.1996 34.2058C28.2397 34.1684 28.287 34.1396 28.3387 34.1211C28.3903 34.1027 28.4452 34.0949 28.5 34.0983Z" fill="#212B42"/>
<path d="M29.7519 30.8225C29.7495 30.7724 29.7572 30.7224 29.7747 30.6754C29.7922 30.6284 29.8191 30.5855 29.8537 30.5492C29.8932 30.5106 29.9403 30.4807 29.9921 30.4613C30.0438 30.4419 30.099 30.4335 30.1542 30.4367C30.2103 30.4331 30.2665 30.4412 30.3193 30.4606C30.372 30.48 30.4201 30.5101 30.4605 30.5492C30.4954 30.5853 30.5225 30.6282 30.54 30.6752C30.5575 30.7223 30.5651 30.7724 30.5623 30.8225C30.5648 30.8726 30.557 30.9226 30.5395 30.9696C30.522 31.0166 30.4951 31.0596 30.4605 31.0959C30.3764 31.1703 30.2664 31.2089 30.1542 31.2033C30.0437 31.2087 29.9357 31.17 29.8537 31.0959C29.8191 31.0596 29.7922 31.0166 29.7747 30.9696C29.7572 30.9226 29.7495 30.8726 29.7519 30.8225ZM30.493 34.8492H29.7953V31.6284H30.493V34.8492Z" fill="#212B42"/>
<path d="M31.164 33.2367C31.1583 32.9436 31.2227 32.6533 31.3518 32.39C31.4693 32.1481 31.6561 31.9466 31.8885 31.8109C32.1144 31.6711 32.3739 31.5951 32.6396 31.5909C32.8381 31.5793 33.0368 31.6105 33.2221 31.6824C33.4075 31.7543 33.5751 31.8652 33.7138 32.0075C33.9943 32.3068 34.1499 32.7018 34.1486 33.1117V33.2834C34.1529 33.5742 34.0903 33.8621 33.9658 34.125C33.8483 34.3669 33.6615 34.5685 33.4291 34.7042C33.1918 34.843 32.9205 34.9134 32.6455 34.9075C32.4446 34.9138 32.2447 34.8769 32.0593 34.7992C31.874 34.7216 31.7076 34.6051 31.5713 34.4575C31.2821 34.1187 31.136 33.681 31.164 33.2367ZM31.8835 33.3009C31.8775 33.5694 31.9544 33.8333 32.1038 34.0567C32.1709 34.144 32.2573 34.2146 32.3563 34.263C32.4552 34.3114 32.564 34.3364 32.6742 34.3359C32.7844 34.3354 32.893 34.3095 32.9916 34.2602C33.0901 34.2109 33.1759 34.1395 33.2422 34.0517C33.3829 33.8042 33.4465 33.5205 33.425 33.2367C33.4427 32.9658 33.3712 32.6965 33.2213 32.47C33.1601 32.3726 33.0742 32.2931 32.9724 32.2394C32.8706 32.1857 32.7564 32.1598 32.6413 32.1642C32.5358 32.1633 32.4317 32.1883 32.3381 32.237C32.2445 32.2856 32.1644 32.3565 32.1046 32.4434C31.948 32.6919 31.8746 32.9838 31.8951 33.2767L31.8835 33.3009Z" fill="#212B42"/>
</g>
</svg>
